<?xml version="1.0" standalone="no"?>
<!DOCTYPE svg PUBLIC "-//W3C//DTD SVG 1.1//EN" "http://www.w3.org/Graphics/SVG/1.1/DTD/svg11.dtd" >
<svg xmlns="http://www.w3.org/2000/svg">
<metadata></metadata>
<defs>
<font id="sky_sansmedium" horiz-adv-x="1085" >
<font-face units-per-em="2048" ascent="1587" descent="-461" />
<missing-glyph horiz-adv-x="526" />
<glyph horiz-adv-x="0" />
<glyph horiz-adv-x="682" />
<glyph unicode=" "  horiz-adv-x="526" />
<glyph unicode="&#x09;" horiz-adv-x="526" />
<glyph unicode="&#xa0;" horiz-adv-x="526" />
<glyph unicode="!" horiz-adv-x="587" d="M180 98q0 46 33 79.5t80 33.5t80 -33.5t33 -79.5q0 -47 -33 -80.5t-80 -33.5t-80 33.5t-33 80.5zM190 1305q0 48 29.5 76t73.5 28q41 0 71.5 -28.5t30.5 -75.5q0 -33 -24.5 -483.5t-28.5 -489.5h-102q-50 932 -50 973z" />
<glyph unicode="&#x22;" horiz-adv-x="884" d="M162 1382q0 45 28.5 85t71.5 40q48 0 75.5 -37.5t27.5 -83.5q0 -12 -3 -24l-69 -463h-60q-11 68 -22.5 146t-25 171.5t-21.5 145.5q-2 6 -2 20zM522 1378q0 42 32 85.5t71 43.5q46 0 74 -39t28 -88q0 -3 -1 -9t-1 -9l-72 -463h-59q-59 397 -70 463q-2 4 -2 16z" />
<glyph unicode="#" d="M0 309v121h209l72 338h-281v119h303l64 311h127l-64 -311h342q47 215 66 311h125l-62 -311h182v-119h-209q-26 -144 -69 -338h278v-121h-299q-9 -43 -33 -150.5t-34 -158.5h-123l65 309h-346l-65 -309h-123q42 213 63 309h-188zM338 430h342l68 338h-340z" />
<glyph unicode="$" horiz-adv-x="1060" d="M68 1034q0 138 110 239.5t297 119.5v149h96v-149q182 -8 383 -97l-45 -166q-218 109 -377 109q-114 0 -177.5 -52.5t-63.5 -133.5q0 -29 18 -58.5t41 -51t69 -49.5t77 -44t90 -45q75 -37 129.5 -69.5t107 -75t85 -87.5t52 -103t19.5 -124q0 -137 -109.5 -238t-298.5 -122 v-146h-96v144q-161 8 -381 75l-12 4q-2 0 -4.5 1.5t-3.5 1.5l49 174q207 -99 369 -99q103 0 179.5 51.5t76.5 143.5q0 29 -10 55.5t-33 51.5t-44.5 43.5t-62.5 42.5t-67 38t-76 39q-157 80 -219 126q-158 115 -167 279q-1 11 -1 23z" />
<glyph unicode="%" horiz-adv-x="1728" d="M102 977q0 184 91.5 308t228.5 124q97 0 170 -64t108 -159t35 -201q0 -117 -41.5 -216t-115.5 -157.5t-164 -58.5q-95 0 -167.5 59.5t-108.5 155t-36 209.5zM264 985q0 -132 44 -234t114 -102q68 0 108.5 98t40.5 230q0 84 -18.5 159.5t-55 126t-83.5 50.5 q-68 0 -109 -98.5t-41 -229.5zM360 0q165 255 475 738.5t420 654.5h105l-895 -1393h-105zM993 408q0 184 91.5 308t228.5 124q97 0 170 -64t108 -159t35 -201q0 -117 -41.5 -216t-115.5 -157.5t-164 -58.5q-95 0 -167.5 59.5t-108.5 155t-36 209.5zM1155 416q0 -132 44 -234 t114 -102q68 0 108.5 98t40.5 230q0 84 -18.5 159.5t-55 125.5t-83.5 50q-46 0 -81 -48t-52 -121.5t-17 -157.5z" />
<glyph unicode="&#x26;" horiz-adv-x="1550" d="M98 305q0 65 22 126t65 116t94 102.5t120 98.5q-176 205 -176 337q0 142 107 233t256 91q85 0 154 -30.5t110 -78t62.5 -99t21.5 -99.5q0 -101 -66 -191.5t-186 -179.5l266 -287q163 212 191 404h176v-14q-23 -133 -90.5 -279.5t-149.5 -247.5q76 -80 134 -126t104 -46 q26 0 164 27l20 -150q-115 -22 -199 -28q-80 2 -174.5 43t-154.5 108l-35 39q-210 -190 -445 -190q-42 0 -91 10.5t-103 35.5t-97.5 61t-71.5 91.5t-28 122.5zM309 330q0 -88 64.5 -139.5t132.5 -51.5q83 0 157 39t154 113l-301 327q-48 -39 -79.5 -68t-63.5 -66.5 t-48 -75.5t-16 -78zM434 1096q0 -46 38 -109.5t91 -122.5q81 63 125.5 119.5t44.5 116.5q0 12 -3.5 29t-14 40.5t-26.5 43t-44.5 33.5t-64.5 14q-68 0 -107 -45.5t-39 -118.5z" />
<glyph unicode="'" horiz-adv-x="495" d="M156 1376q0 48 27.5 89.5t74.5 41.5q45 0 73.5 -36t28.5 -80q0 -5 -1 -15t-1 -14l-71 -463h-60q-8 52 -21.5 145.5t-25 171.5t-22.5 146q0 2 -1 7t-1 7z" />
<glyph unicode="(" horiz-adv-x="698" d="M141 588q0 268 82.5 507t229.5 396h194q-141 -151 -225 -394t-84 -509t83.5 -508.5t225.5 -392.5h-196q-146 155 -228 394t-82 507z" />
<glyph unicode=")" horiz-adv-x="700" d="M51 -313q142 150 225.5 392.5t83.5 508.5t-84 509t-225 394h195q146 -157 228.5 -396t82.5 -507t-81.5 -507t-227.5 -394h-197z" />
<glyph unicode="*" horiz-adv-x="966" d="M53 864q0 55 49 74q14 6 81.5 21t128.5 27l61 11q4 -20 8 -30l16 -27q-200 -137 -231 -149q-18 -7 -31 -7q-25 0 -46 13.5t-30 36.5q-6 15 -6 30zM53 1153q0 16 6 31q9 23 31 37t47 14q14 0 29 -6q14 -5 71.5 -43t108.5 -74l51 -35q-12 -16 -16 -26l-8 -29 q-240 45 -271 57q-23 9 -36 29.5t-13 44.5zM258 662q0 15 6 30q5 14 42.5 72t72.5 109l35 51q16 -13 26 -17l31 -8q-45 -237 -59 -268q-9 -24 -29.5 -37.5t-44.5 -13.5q-16 0 -31 6q-23 9 -36 30t-13 46zM258 1358q0 24 13 45t36 31q15 6 29 6q25 0 46 -14t30 -37 q6 -14 21 -81.5t27 -128.5l11 -61q-21 -2 -31 -6l-26 -16q-138 200 -150 231q-6 15 -6 31zM395 1010q0 35 25.5 60.5t62.5 25.5q35 0 60.5 -25.5t25.5 -60.5q0 -36 -25 -61t-61 -25q-37 0 -62.5 24.5t-25.5 61.5zM496 899q18 4 28 8l27 17q137 -201 151 -232q7 -18 7 -28 q0 -25 -14.5 -47t-37.5 -31q-15 -6 -30 -6q-24 0 -44.5 13.5t-29.5 37.5q-6 14 -20.5 81t-25.5 127zM496 1118q43 240 57 271q9 23 30 37t46 14q13 0 28 -6q23 -11 37.5 -32t14.5 -46q0 -12 -7 -29q-6 -14 -44 -71.5t-72 -108.5l-35 -51q-17 10 -27 16zM567 940q13 19 19 27 l6 30q239 -45 270 -59q49 -19 49 -74q0 -15 -6 -30q-9 -23 -29.5 -36.5t-44.5 -13.5q-13 0 -30 7q-15 5 -73.5 42.5t-109.5 72.5zM567 1077q201 140 234 152q15 6 28 6q25 0 46 -14t30 -37q6 -15 6 -31q0 -24 -13 -44.5t-36 -29.5q-14 -5 -81.5 -19.5t-128.5 -25.5l-60 -12 q-4 21 -6 29z" />
<glyph unicode="+" d="M53 535v127h428v425h127v-425h424v-127h-424v-429h-127v429h-428z" />
<glyph unicode="," horiz-adv-x="493" d="M61 -324q45 43 89.5 108t44.5 118q0 65 -37 110q-41 55 -41 94q0 42 30 73.5t78 31.5q58 0 91.5 -42.5t33.5 -113.5q0 -61 -24 -125.5t-64 -120.5t-78 -98.5t-80 -79.5z" />
<glyph unicode="-" horiz-adv-x="802" d="M115 403v136h571v-136h-571z" />
<glyph unicode="." horiz-adv-x="514" d="M123 96q0 46 33 79.5t80 33.5t79.5 -33.5t32.5 -79.5t-32.5 -79t-79.5 -33t-80 33t-33 79z" />
<glyph unicode="/" horiz-adv-x="720" d="M82 -16l455 1425h100l-455 -1425h-100z" />
<glyph unicode="0" d="M84 688q0 330 130.5 525.5t334.5 195.5q143 0 247.5 -99.5t154.5 -258.5t50 -355q0 -212 -61 -375t-166.5 -250t-238.5 -87q-211 0 -331 191.5t-120 512.5zM287 696q0 -153 28 -276.5t88.5 -202t145.5 -78.5q82 0 139.5 76t84 197t26.5 274q0 113 -17 213.5t-49 180 t-83 126.5t-115 47q-83 0 -140 -77t-82.5 -199.5t-25.5 -280.5z" />
<glyph unicode="1" d="M104 1053l471 356l105 -20v-1235h301v-154h-805v154h301v995q-298 -234 -301 -236z" />
<glyph unicode="2" d="M102 98l70 68q84 81 170 178t173.5 211.5t143.5 227t58 192.5q0 112 -60.5 194t-167.5 82q-115 0 -272 -133l-102 133q225 158 397 158q182 0 297 -117t115 -293v-8q-3 -173 -135.5 -376.5t-378.5 -460.5h573v-154h-852z" />
<glyph unicode="3" d="M119 121l59 168q112 -78 193 -115t174 -37q96 0 155.5 75t59.5 179q0 103 -103 183t-247 83v144q134 3 223.5 72t89.5 167q0 34 -12 69.5t-35 68.5t-64.5 54t-93.5 21q-123 0 -289 -116l-59 139q209 133 371 133q95 0 171.5 -29.5t122.5 -78.5t70.5 -109t24.5 -125 q0 -96 -58.5 -184.5t-136.5 -137.5q230 -127 230 -339q0 -119 -61 -216.5t-162.5 -151.5t-219.5 -54q-199 0 -403 137z" />
<glyph unicode="4" d="M37 510l620 883h201v-881h189v-154h-189v-358h-203v358h-569q-29 94 -49 152zM213 512h442v627z" />
<glyph unicode="5" d="M111 90l77 148q83 -47 153 -73t148 -26q66 0 120.5 28t88.5 74t52 101t18 113q0 40 -9 82.5t-29.5 85.5t-50 76t-75 54t-100.5 21q-76 0 -174 -65q-8 4 -40.5 22.5t-70.5 38.5l55 623h654v-154h-473l-29 -338q67 23 115 23q101 0 184.5 -39t136.5 -103.5t82 -146.5 t29 -170q0 -83 -33 -167t-92.5 -154.5t-156 -115t-212.5 -44.5q-185 0 -368 106z" />
<glyph unicode="6" d="M96 465q0 154 73.5 326.5t187 321t259.5 282.5l156 -82q-150 -145 -246 -268.5t-149 -258.5q102 74 180 74q171 0 293 -106q137 -119 137 -318q0 -88 -36 -171t-96 -144.5t-144 -99t-176 -37.5q-197 0 -318 135t-121 346zM301 479q0 -141 65.5 -240.5t182.5 -99.5 q44 0 85.5 19t67.5 51q82 88 82 213q0 72 -26.5 130.5t-66 90.5t-80 49t-74.5 17q-99 0 -167.5 -65.5t-68.5 -164.5z" />
<glyph unicode="7" d="M80 922v471h899l27 -107l-635 -1309l-176 48l602 1214h-553l-25 -317h-139z" />
<glyph unicode="8" d="M102 365q0 100 62 198t160 156q-79 51 -129 133t-50 170q0 165 120 276t290 111q165 0 276 -108.5t111 -264.5q0 -89 -47.5 -171.5t-130.5 -131.5q91 -52 154 -146.5t63 -207.5q0 -107 -61 -198.5t-163.5 -144t-219.5 -52.5q-187 0 -311 109.5t-124 271.5zM305 375 q0 -104 73 -172t173 -68q97 0 163 65t66 165q0 108 -77 187t-173 87q-93 -6 -159 -79.5t-66 -184.5zM346 1036q0 -86 64 -154t145 -81q73 9 129.5 76.5t56.5 148.5q0 87 -59.5 158t-142.5 71q-84 0 -138.5 -64.5t-54.5 -154.5z" />
<glyph unicode="9" d="M96 956q0 118 61 222t166.5 167.5t227.5 63.5q196 0 316 -135t120 -346q0 -228 -147 -480t-371 -460l-156 82q146 143 244 271.5t152 264.5q-106 -74 -183 -74q-167 0 -293 107q-137 114 -137 317zM301 971q0 -72 26.5 -130.5t66.5 -90.5t80.5 -49t74.5 -17 q98 0 166.5 64.5t68.5 164.5q0 91 -27 166.5t-84 124.5t-136 49q-46 0 -87.5 -18.5t-66.5 -50.5q-82 -85 -82 -213z" />
<glyph unicode=":" horiz-adv-x="530" d="M137 96q0 46 34 79.5t81 33.5t80 -33.5t33 -79.5t-33 -79t-80 -33t-81 33t-34 79zM137 877q0 46 34 78t81 32t80 -32t33 -78q0 -47 -33 -81t-80 -34t-81 34t-34 81z" />
<glyph unicode=";" horiz-adv-x="532" d="M92 -324q45 42 89 107.5t44 118.5q0 65 -37 110q-41 55 -41 94q0 42 30.5 73.5t78.5 31.5q58 0 91.5 -42.5t33.5 -113.5q0 -61 -24 -125.5t-64 -120.5t-78 -98.5t-80 -79.5zM147 877q0 46 33 78t80 32t80 -32t33 -78q0 -47 -33 -81t-80 -34t-80 34t-33 81z" />
<glyph unicode="&#x3c;" d="M82 541v112l864 408l55 -117l-749 -348q452 -211 752 -344l-60 -117z" />
<glyph unicode="=" d="M59 311v127h965v-127h-965zM59 758v127h965v-127h-965z" />
<glyph unicode="&#x3e;" d="M82 252q300 133 752 344l-750 348l55 117l865 -408v-112l-863 -406z" />
<glyph unicode="?" horiz-adv-x="878" d="M154 1368q155 41 217 41q154 0 262 -90.5t108 -226.5q0 -63 -26 -124t-65.5 -107t-85.5 -97.5t-85.5 -97t-65.5 -104.5t-26 -120q0 -15 4 -51h-155q-13 58 -13 105q0 58 17 111t44.5 94t61 79.5t67 73.5t61 69.5t44.5 75t17 82.5q0 79 -54.5 136t-128.5 57q-15 0 -38 -5 t-40.5 -10.5t-41.5 -13.5t-31 -10q-8 22 -23.5 67t-23.5 66zM205 96q0 46 33.5 79.5t80.5 33.5t80 -33.5t33 -79.5t-33 -79t-80 -33t-80.5 33t-33.5 79z" />
<glyph unicode="@" horiz-adv-x="2093" d="M133 432q0 200 73 380t200 311t307 208.5t385 77.5q212 0 375.5 -70.5t273.5 -185.5q96 -102 149.5 -238t53.5 -284q0 -167 -71.5 -316.5t-193.5 -240t-260 -90.5q-84 0 -131.5 43t-50.5 112q-64 -75 -139 -115t-178 -40q-172 0 -277.5 118.5t-105.5 292.5q0 149 70 285 t193.5 221.5t266.5 85.5q87 0 160.5 -44.5t120.5 -115.5q22 137 24 144h144q-12 -82 -142 -754q-4 -12 -4 -39q0 -41 27.5 -73.5t56.5 -32.5q93 0 175.5 82t129.5 208.5t47 258.5q0 101 -28 199.5t-87.5 188t-144 157.5t-206.5 108.5t-265 40.5q-231 0 -418 -115t-291 -313 t-104 -438q0 -173 63 -321t174.5 -251t268.5 -161t340 -58q207 0 398 80t343 225q3 -5 38 -23t63 -30q-166 -166 -389 -255t-469 -89q-283 0 -502.5 107.5t-341 304.5t-121.5 454zM690 412q0 -150 75 -247t185 -97q57 0 105 20.5t82.5 53t63 83.5t47 101t33.5 117t23.5 120 t16.5 121q-1 6 -14 31q-36 84 -99.5 133t-140.5 49q-108 0 -195.5 -69t-134.5 -179.5t-47 -236.5z" />
<glyph unicode="A" horiz-adv-x="1310" d="M20 0l537 1393h199l534 -1393h-223l-141 371h-576l-143 -371h-187zM410 524h456l-164 424l-59 193h-10l-62 -195z" />
<glyph unicode="B" horiz-adv-x="1167" d="M145 0v1393h457q166 0 276.5 -102.5t110.5 -254.5q0 -83 -43.5 -158t-126.5 -128q120 -42 198.5 -133t78.5 -218q0 -155 -99 -265.5t-256 -127.5q-67 -6 -143 -6h-453zM358 156h299q100 0 160 72t60 175q0 124 -83 185t-235 61h-201v-493zM358 803h211q81 0 144 66.5 t63 156.5q0 89 -56 150t-136 61h-226v-434z" />
<glyph unicode="C" horiz-adv-x="1226" d="M72 688q0 163 53.5 299.5t147 228t221 142.5t274.5 51q165 0 383 -88l-45 -166q-198 98 -342 98q-139 0 -246 -73t-164 -198.5t-57 -281.5q0 -252 131 -405.5t340 -153.5q113 0 340 86l57 -157q-219 -86 -405 -86q-148 0 -277 54t-218.5 148t-141 224t-51.5 278z" />
<glyph unicode="D" horiz-adv-x="1378" d="M143 0v1393h482q142 0 267 -50t217 -139t145 -220.5t53 -287.5q0 -133 -37.5 -247t-102 -195t-150.5 -139.5t-183.5 -86.5t-200.5 -28h-490zM356 156h258q206 0 336.5 143.5t130.5 384.5q0 260 -127.5 406.5t-345.5 146.5h-252v-1081z" />
<glyph unicode="E" horiz-adv-x="1019" d="M143 0v1393h836v-156h-623v-442h541v-156h-541v-483h643v-156h-856z" />
<glyph unicode="F" horiz-adv-x="999" d="M143 0v1393h836v-156h-623v-442h541v-156h-541v-639h-213z" />
<glyph unicode="G" horiz-adv-x="1359" d="M72 690q0 160 53 295t145.5 227.5t219 144.5t270.5 52q243 0 483 -141l-43 -162q-207 145 -444 145q-137 0 -242 -73t-161 -198.5t-56 -281.5q0 -251 132.5 -405t340.5 -154q104 0 264 47v404h-293v155h506v-659q-271 -102 -487 -102q-143 0 -268.5 49t-218.5 138.5 t-147 223.5t-54 295z" />
<glyph unicode="H" horiz-adv-x="1353" d="M143 0v1393h213v-594h641v594h213v-1393h-213v643h-641v-643h-213z" />
<glyph unicode="I" horiz-adv-x="499" d="M143 0v1393h213v-1393h-213z" />
<glyph unicode="J" horiz-adv-x="862" d="M41 123q67 72 88 98l35 43q137 -102 207 -102q29 0 54 8.5t49 28t38 57.5t14 92v1045h213v-1043q0 -169 -104 -267.5t-260 -98.5q-174 0 -334 139z" />
<glyph unicode="K" horiz-adv-x="1316" d="M143 0v1393h213v-648q80 80 169.5 178.5t211.5 235t211 234.5h238l-553 -609q109 -128 337.5 -392t336.5 -392h-263q-10 12 -57.5 68t-187.5 220t-299 351l-144 -158v-481h-213z" />
<glyph unicode="L" horiz-adv-x="1028" d="M143 0v1393h213v-1237h652v-156h-865z" />
<glyph unicode="M" horiz-adv-x="1681" d="M133 0l31 1393h196l478 -662l479 662h192l29 -1393h-217l-14 897l-2 166q-78 -112 -232 -324.5t-211 -292.5h-80l-440 613q0 -26 -2 -78t-2 -76l-21 -905h-184z" />
<glyph unicode="N" horiz-adv-x="1419" d="M143 0v1393h201l756 -1051v1051h176v-1393h-186l-771 1067v-1067h-176z" />
<glyph unicode="O" horiz-adv-x="1501" d="M72 692q0 157 52 291.5t142.5 227.5t216 145.5t269.5 52.5q193 0 347.5 -90t242.5 -253t88 -370q0 -160 -53 -294.5t-144.5 -225.5t-216 -141.5t-266.5 -50.5q-144 0 -269.5 51.5t-215.5 143.5t-141.5 224.5t-51.5 288.5zM297 696q0 -249 127 -402t328 -153 q204 0 328 155.5t124 395.5q0 249 -127 404t-327 155q-203 0 -328 -158t-125 -397z" />
<glyph unicode="P" horiz-adv-x="1073" d="M143 0v1393h428q198 0 324.5 -121t126.5 -316q0 -102 -37 -185t-100.5 -137t-146 -83t-175.5 -29h-207v-522h-213zM356 678h213q104 0 167 78.5t63 199.5q0 123 -67 202t-173 79h-203v-559z" />
<glyph unicode="Q" horiz-adv-x="1503" d="M72 694q0 160 53.5 295t145.5 226.5t216.5 142.5t266.5 51q144 0 269.5 -52t215.5 -144.5t141.5 -225.5t51.5 -289q0 -131 -41 -247.5t-111 -201t-156.5 -143.5t-183.5 -88q170 -124 422 -124v-156q-121 0 -227.5 18.5t-176.5 45.5t-129.5 63.5t-90.5 65.5t-56 59 q-131 12 -243.5 68t-193.5 146t-127 216.5t-46 273.5zM297 698q0 -249 127.5 -403t329.5 -154q201 0 326.5 156t125.5 397q0 249 -127.5 403t-328.5 154q-137 0 -241 -73.5t-158 -198.5t-54 -281z" />
<glyph unicode="R" horiz-adv-x="1165" d="M143 0v1393h426q184 0 301 -111t117 -293q0 -128 -67.5 -225t-182.5 -135q34 -24 71.5 -68.5t60.5 -78t65 -99.5l24 -39l187 -344h-234q-57 122 -139 255.5t-161 228t-117 94.5h-138v-578h-213zM356 733h201q94 0 152.5 73t58.5 177q0 109 -66 181.5t-161 72.5h-185v-504 z" />
<glyph unicode="S" horiz-adv-x="1081" d="M68 74l45 172q90 -45 196 -74t199 -29q103 0 180.5 51.5t77.5 143.5q0 23 -5.5 43.5t-19.5 40.5t-27 35.5t-39 34t-42.5 30.5t-52 31.5t-53 28.5t-58.5 30q-54 27 -81 41.5t-75.5 43.5t-74.5 51t-60.5 57t-52 68.5t-30.5 78.5t-13 95q0 74 30 139t87 115t147 79t203 29 q193 0 426 -98l-47 -168q-208 108 -379 108q-116 0 -180 -52.5t-64 -133.5q0 -31 17.5 -60.5t40 -51.5t68 -50t78 -45t93.5 -47q97 -47 163 -89.5t122.5 -97.5t84 -123.5t27.5 -152.5q0 -156 -124.5 -260t-352.5 -104q-204 0 -454 90z" />
<glyph unicode="T" horiz-adv-x="1122" d="M23 1237v156h1079v-156h-432v-1237h-213v1237h-434z" />
<glyph unicode="U" horiz-adv-x="1374" d="M143 510v883h201v-891q0 -106 51.5 -190.5t132 -128.5t172.5 -44q150 0 254.5 104t104.5 251v899h192v-875q0 -145 -71 -267.5t-199 -194.5t-285 -72q-112 0 -213 39t-176.5 107t-119.5 167t-44 213z" />
<glyph unicode="V" horiz-adv-x="1255" d="M20 1393h230l395 -1119q65 178 195 546.5t204 572.5h191l-512 -1393h-195z" />
<glyph unicode="W" horiz-adv-x="1939" d="M20 1393h224l325 -1092l324 1092h184l324 -1092l330 1092h188q-25 -74 -434 -1393h-207l-309 1028q-48 -164 -153.5 -514t-153.5 -514h-197z" />
<glyph unicode="X" horiz-adv-x="1417" d="M10 0l568 723q-57 72 -244 309t-283 361h258l400 -512q7 8 39.5 49.5t137 176.5t222.5 286h233l-518 -652q158 -202 584 -741h-258l-455 580q-78 -108 -233.5 -304t-216.5 -276h-234z" />
<glyph unicode="Y" horiz-adv-x="1218" d="M20 1393h246q307 -496 363 -596l366 596h203l-483 -787v-606h-213v602q-76 120 -234.5 385t-247.5 406z" />
<glyph unicode="Z" horiz-adv-x="1169" d="M51 0v102l760 1135h-733v156h1016v-101l-754 -1136h778v-156h-1067z" />
<glyph unicode="[" horiz-adv-x="587" d="M158 -317v1808h358v-123h-186v-1565h186v-120h-358z" />
<glyph unicode="\" horiz-adv-x="720" d="M82 1409h98q77 -238 228.5 -712.5t228.5 -712.5h-100z" />
<glyph unicode="]" horiz-adv-x="589" d="M72 -197h186v1565h-186v123h360v-1808h-360v120z" />
<glyph unicode="^" horiz-adv-x="1003" d="M51 582l398 792h100l401 -792h-116l-334 592l-334 -592h-115z" />
<glyph unicode="_" horiz-adv-x="999" d="M-2 -174h1003v-80h-1003v80z" />
<glyph unicode="`" horiz-adv-x="856" d="M246 1393h168l194 -326h-88z" />
<glyph unicode="a" horiz-adv-x="1034" d="M61 246q0 56 14 103.5t42 83t60 63.5t78 48.5t85.5 35t93 25t89 16.5t85.5 12l58 8v41q0 74 -52 120t-151 46q-58 0 -122 -20.5t-99 -41.5l-35 -20l-41 172q189 49 332 49q75 0 140 -20t115.5 -59.5t79.5 -103.5t29 -147v-403q0 -52 35 -87t86 -40l-22 -127 q-165 0 -242 131q-147 -147 -346 -147q-147 0 -229.5 67.5t-82.5 194.5zM250 276q0 -68 46 -105.5t126 -37.5q105 0 174.5 59t69.5 107v215q-86 -6 -157 -21.5t-131.5 -43t-94 -71.5t-33.5 -102z" />
<glyph unicode="b" horiz-adv-x="1075" d="M125 47v1444h197v-594q45 35 119.5 62.5t140.5 27.5q208 0 320 -132t112 -361q0 -151 -71.5 -268t-193.5 -179.5t-272 -62.5q-175 0 -352 63zM322 145q74 -26 174 -26q141 0 227 99t86 257q0 171 -73 273t-204 102q-47 0 -107 -28t-103 -64v-613z" />
<glyph unicode="c" horiz-adv-x="919" d="M61 475q0 233 140 372.5t366 139.5q149 0 299 -59l-37 -135q-147 61 -264 61q-138 0 -217.5 -98.5t-79.5 -253.5q0 -166 88 -274.5t236 -108.5q97 0 252 47l35 -129q-175 -53 -304 -53q-233 0 -373.5 129.5t-140.5 361.5z" />
<glyph unicode="d" horiz-adv-x="1069" d="M61 481q0 233 123 369.5t316 136.5q65 0 136 -25.5t114 -58.5v588h196v-1487q-150 -20 -368 -20q-241 0 -379 130.5t-138 366.5zM266 483q0 -157 87 -261.5t245 -104.5q30 0 68 2t61 4l23 2v637q-111 88 -213 88q-129 0 -200 -97.5t-71 -269.5z" />
<glyph unicode="e" horiz-adv-x="1015" d="M61 483q0 235 130.5 369.5t347.5 134.5q95 0 168 -31.5t117.5 -82t72.5 -122.5t38.5 -145t10.5 -157h-682q6 -80 35.5 -144.5t73.5 -103.5t94.5 -59.5t101.5 -20.5q128 0 326 100l59 -119q-216 -118 -397 -118q-224 0 -360 131t-136 368zM270 586h461q8 24 8 55 q0 82 -52.5 145.5t-154.5 63.5q-95 0 -168.5 -64t-93.5 -200z" />
<glyph unicode="f" horiz-adv-x="628" d="M41 840v131h143v178q0 83 32.5 152t86 113.5t120.5 68.5t138 24q69 0 180 -30l-65 -166l-19 12q-67 39 -114 39q-81 0 -121.5 -56.5t-40.5 -146.5v-188h217v-131h-217v-840h-197v840h-143z" />
<glyph unicode="g" horiz-adv-x="1026" d="M72 629q0 155 123 256.5t307 101.5q138 0 241 -63q60 34 226 114l22 -143q-86 -34 -131 -59q70 -86 70 -203q0 -103 -59 -183.5t-159 -123.5t-223 -43q-66 0 -122 16q-99 -94 -99 -147q0 -62 94 -62q38 0 139 11t136 14q14 2 47 2q48 0 89.5 -9.5t78 -30t57.5 -58.5 t21 -89q0 -62 -27.5 -114.5t-72.5 -89t-108.5 -65t-130.5 -46t-144 -28.5t-143.5 -15t-133.5 -4v127q82 0 171.5 10t178.5 30.5t146 59t57 88.5q0 41 -30.5 66.5t-78.5 25.5q-38 0 -143 -14.5t-164 -15.5q-42 0 -79 7.5t-71.5 24.5t-54.5 50t-20 79q0 54 41.5 118t107.5 124 q-75 43 -117 117.5t-42 163.5zM272 641q0 -112 65.5 -181t166.5 -69q95 0 157 63t62 162q0 114 -65 183t-166 69q-96 0 -158 -63t-62 -164z" />
<glyph unicode="h" horiz-adv-x="1062" d="M125 0v1491h197v-655q78 81 166.5 116t164.5 35q130 0 208.5 -78t78.5 -233v-676h-197v621q0 99 -42.5 153.5t-114.5 54.5q-64 0 -134.5 -35.5t-129.5 -105.5v-688h-197z" />
<glyph unicode="i" horiz-adv-x="448" d="M111 1298q0 46 32 78.5t78 32.5t79.5 -32.5t33.5 -78.5t-33.5 -79t-79.5 -33t-78 33t-32 79zM125 0v971h197v-971h-197z" />
<glyph unicode="j" horiz-adv-x="446" d="M-180 -307q52 0 104.5 18t98 51t74 88.5t28.5 122.5v998h197v-996q0 -103 -44.5 -184t-118 -128.5t-160 -72t-179.5 -24.5v127zM111 1298q0 46 33 78.5t79 32.5t78.5 -32.5t32.5 -78.5t-32.5 -79t-78.5 -33t-79 33t-33 79z" />
<glyph unicode="k" horiz-adv-x="983" d="M125 0v1491h197v-881l417 361h205l-467 -404l506 -567h-231l-430 489v-489h-197z" />
<glyph unicode="l" horiz-adv-x="442" d="M123 0v1491h196v-1491h-196z" />
<glyph unicode="m" horiz-adv-x="1652" d="M125 0v971h197v-127q78 78 162 110.5t157 32.5q190 0 258 -166q84 90 175 128t169 38q129 0 206 -78t77 -225v-684h-197v629q0 95 -37.5 147.5t-113.5 52.5q-143 0 -256 -137v-692h-197v629q0 95 -38.5 147.5t-111.5 52.5q-59 0 -126.5 -33.5t-126.5 -101.5v-694h-197z " />
<glyph unicode="n" horiz-adv-x="1062" d="M125 0v971h197v-135q78 81 166.5 116t164.5 35q130 0 208.5 -78t78.5 -233v-676h-197v621q0 99 -42.5 153.5t-114.5 54.5q-64 0 -134.5 -35.5t-129.5 -105.5v-688h-197z" />
<glyph unicode="o" horiz-adv-x="1148" d="M61 477q0 154 69 271t186 178t262 61q231 0 370 -132t139 -359q0 -230 -146.5 -371t-373.5 -141q-229 0 -367.5 133.5t-138.5 359.5zM266 504q0 -167 91.5 -278t226.5 -111q132 0 216.5 101t84.5 253q0 167 -91 275t-227 108q-133 0 -217 -99t-84 -249z" />
<glyph unicode="p" horiz-adv-x="1071" d="M125 -418v1385q157 20 367 20q243 0 380.5 -131t137.5 -367q0 -233 -123 -369t-316 -136q-67 0 -137.5 25.5t-111.5 58.5v-486h-197zM322 209q35 -31 94 -59.5t119 -28.5q129 0 199.5 97t70.5 269q0 157 -87.5 262t-246.5 105q-29 0 -66.5 -2t-60.5 -4l-22 -2v-637z" />
<glyph unicode="q" horiz-adv-x="1069" d="M61 475q0 124 43 223t117 161t169.5 95t203.5 33q181 0 352 -63v-1342h-196v492q-48 -37 -119.5 -63.5t-136.5 -26.5q-208 0 -320.5 131t-112.5 360zM266 496q0 -171 72.5 -274t204.5 -103q90 0 207 88v616q-82 31 -177 31q-134 0 -220.5 -102.5t-86.5 -255.5z" />
<glyph unicode="r" horiz-adv-x="782" d="M123 0v971h196v-156q145 172 279 172q108 0 174 -37l-47 -198q-56 65 -139 65q-44 0 -84 -15t-73 -42.5t-58.5 -57.5t-51.5 -69v-633h-196z" />
<glyph unicode="s" horiz-adv-x="792" d="M51 53l37 146q140 -72 266 -72q82 0 136.5 31t54.5 98q0 48 -56 84t-155 68q-142 48 -209.5 121.5t-67.5 185.5q0 109 103.5 190.5t238.5 81.5q159 0 320 -72l-37 -137q-172 74 -270 74q-89 0 -127.5 -37.5t-38.5 -81.5q0 -19 8 -36t28.5 -32.5t38 -27t54 -27t58 -24 t67.5 -25.5q241 -94 241 -278q0 -132 -96 -215.5t-258 -83.5q-98 0 -173.5 18t-162.5 51z" />
<glyph unicode="t" horiz-adv-x="792" d="M20 838v133h173v250l196 88v-338h352v-133h-352v-519q0 -92 42.5 -144t115.5 -52q81 0 194 55l41 -141q-164 -53 -274 -53q-146 0 -230.5 80t-84.5 235v539h-173z" />
<glyph unicode="u" horiz-adv-x="1060" d="M125 348v623h197v-621q0 -100 41.5 -154.5t111.5 -54.5q49 0 90 12.5t75 40t52.5 47t48.5 56.5v674h197v-971h-197v131q-63 -63 -147 -105t-164 -42q-63 0 -116.5 21t-96.5 63t-67.5 114t-24.5 166z" />
<glyph unicode="v" horiz-adv-x="1003" d="M10 971h203l297 -733l299 733h184l-409 -971h-166z" />
<glyph unicode="w" horiz-adv-x="1589" d="M10 971h193l268 -731l279 731h114l271 -733q51 140 152 405.5t124 327.5h168l-371 -971h-166l-245 647q-159 -403 -252 -647h-168z" />
<glyph unicode="x" horiz-adv-x="1030" d="M10 0l393 492l-385 479h228l268 -340l270 340h199l-373 -461l410 -510h-227l-293 371l-293 -371h-197z" />
<glyph unicode="y" horiz-adv-x="1003" d="M0 -299q224 0 293 66q58 53 125 217l-410 987h203l301 -731q48 121 147.5 365.5t147.5 365.5h186q-379 -930 -389 -953q-114 -273 -192 -348q-55 -53 -154.5 -74.5t-257.5 -21.5v127z" />
<glyph unicode="z" horiz-adv-x="929" d="M61 0v90l529 748h-510v133h788v-70l-546 -770h530v-131h-791z" />
<glyph unicode="{" horiz-adv-x="786" d="M76 547v94q117 41 191.5 116t74.5 158q0 20 -7 108t-7 105q0 150 93 245t251 134l53 -96q-117 -33 -173 -100t-56 -178q0 -6 7 -98t7 -105q0 -223 -244 -336q117 -55 180.5 -143t63.5 -189q0 -24 -7 -107t-7 -96q0 -118 60 -183t169 -97l-53 -98q-157 36 -250.5 131 t-93.5 245q0 19 7 106t7 109q0 82 -75 158.5t-191 116.5z" />
<glyph unicode="|" horiz-adv-x="530" d="M207 -272v1763h117v-1763h-117z" />
<glyph unicode="}" horiz-adv-x="784" d="M61 -223q118 35 176 101.5t58 176.5q0 14 -8 99.5t-8 101.5q0 106 60.5 193.5t184.5 144.5q-118 56 -181.5 143.5t-63.5 188.5q0 30 8 110t8 92q0 117 -61.5 182t-172.5 99l58 98q157 -36 250.5 -131t93.5 -246q0 -17 -7 -104.5t-7 -107.5q0 -84 74 -160.5t190 -116.5 v-94q-116 -40 -190 -115.5t-74 -157.5q0 -18 7 -106.5t7 -108.5q0 -150 -93 -244.5t-251 -133.5z" />
<glyph unicode="~" horiz-adv-x="946" d="M84 508v135q112 80 180 80q72 0 205 -47t207 -47q69 0 186 84v-133q-86 -69 -178 -76q-69 0 -151 23t-151.5 46t-109.5 23q-69 0 -188 -88z" />
<glyph unicode="&#xa1;" horiz-adv-x="587" d="M180 870q0 48 33 82.5t80 34.5t80 -34.5t33 -82.5q0 -45 -33 -77.5t-80 -32.5t-80 32.5t-33 77.5zM190 -330q0 32 25 482t29 491h102q49 -932 49 -973q0 -49 -28.5 -76.5t-73.5 -27.5q-41 0 -72 28t-31 76z" />
<glyph unicode="&#xa2;" horiz-adv-x="929" d="M61 477q0 210 115 345.5t307 160.5v158h103v-152q148 -7 280 -59l-37 -135q-147 61 -264 61q-138 0 -217.5 -98.5t-79.5 -253.5q0 -166 88 -273.5t236 -107.5q97 0 252 47l35 -129q-159 -50 -293 -53v-152h-103v158q-195 24 -308.5 149.5t-113.5 333.5z" />
<glyph unicode="&#xa3;" horiz-adv-x="1202" d="M41 504v102h291q12 73 30 129h-321v105h340q3 0 57 231q33 142 154 240t270 98q75 0 156.5 -29.5t144.5 -74.5l-141 -127q-87 65 -174 65q-47 0 -85.5 -21t-63 -54.5t-38.5 -61.5t-22 -57q-7 -35 -23.5 -104.5t-23.5 -104.5h260v-105h-279q-1 -5 -13.5 -52t-18.5 -77h311 v-102h-332l-78 -350h703v-154h-942l108 504h-270z" />
<glyph unicode="&#xa4;" d="M27 174l147 145q-98 132 -98 283q0 158 96 283l-145 143l92 90l143 -141q127 94 281 94q152 0 280 -96l144 143l90 -90l-146 -145q97 -130 97 -281q0 -150 -97 -280l148 -148l-92 -88l-144 141q-126 -96 -280 -96q-158 0 -281 96l-143 -141zM209 602q0 -139 98.5 -239.5 t235.5 -100.5t235 98q99 99 99 242q0 137 -99 238.5t-235 101.5t-235 -101.5t-99 -238.5z" />
<glyph unicode="&#xa5;" horiz-adv-x="1216" d="M20 1393h248q14 -27 363 -602q248 408 362 602h203l-426 -705h244v-104h-295v-129h295v-103h-295v-352h-217v352h-297v103h297v129h-297v104h239q-70 112 -242 400.5t-182 304.5z" />
<glyph unicode="&#xa6;" horiz-adv-x="530" d="M205 381h121v-799h-121v799zM205 690v801h121v-801h-121z" />
<glyph unicode="&#xa7;" horiz-adv-x="944" d="M94 -299q5 6 37.5 51t50.5 68q173 -101 267 -101q91 0 143.5 56t52.5 153q0 55 -28.5 102.5t-74 83.5t-100.5 71t-110 73t-100.5 80t-74 101t-28.5 128q0 77 37.5 147t105.5 117q-120 108 -120 242q0 84 42 159.5t126.5 126t193.5 50.5q129 0 320 -100l-82 -111 q-168 82 -238 82q-87 0 -133.5 -58t-46.5 -137q0 -52 28.5 -97t74 -80t100.5 -70t110 -73t100.5 -81t74 -103.5t28.5 -131.5q0 -81 -35.5 -151.5t-97.5 -117.5q112 -108 112 -231q0 -162 -108 -261.5t-266 -99.5q-79 0 -178.5 33.5t-182.5 79.5zM313 578q0 -32 10 -61 t25 -50.5t42 -45.5t49 -39.5t59 -39.5q13 -9 31.5 -21t36.5 -24l24 -16q76 54 76 172q-2 39 -17.5 72t-47 62.5t-57.5 48.5t-74.5 50.5t-72.5 48.5q-38 -29 -61 -71.5t-23 -85.5z" />
<glyph unicode="&#xa8;" horiz-adv-x="733" d="M106 1227q0 32 27 58t62 26t59.5 -25.5t24.5 -58.5q0 -35 -24.5 -59.5t-59.5 -24.5q-36 0 -62.5 24.5t-26.5 59.5zM451 1227q0 33 26.5 58.5t61.5 25.5t59.5 -25.5t24.5 -58.5q0 -35 -24.5 -59.5t-59.5 -24.5q-36 0 -62 24.5t-26 59.5z" />
<glyph unicode="&#xa9;" horiz-adv-x="1642" d="M109 694q0 143 56 274.5t151 227t226.5 152.5t276.5 57t277 -57t227.5 -152.5t152 -227t56.5 -274.5t-56.5 -274.5t-152 -227t-227.5 -152t-277 -56.5q-144 0 -275.5 56.5t-226.5 152t-151.5 227t-56.5 274.5zM182 694q0 -129 51 -247.5t136.5 -203.5t203.5 -135.5 t246 -50.5q129 0 247 50.5t204 135.5t137 203t51 248q0 129 -50.5 247t-136.5 203.5t-204 136t-248 50.5q-129 0 -247 -50.5t-203.5 -136t-136 -203.5t-50.5 -247zM375 688q0 212 131 340.5t330 128.5q107 0 249 -57l-24 -96q-137 67 -227 67q-139 0 -224.5 -106.5 t-85.5 -268.5q0 -170 87 -273.5t225 -103.5q85 0 225 58l33 -90q-138 -56 -265 -56q-198 0 -326 130.5t-128 326.5z" />
<glyph unicode="&#xaa;" horiz-adv-x="784" d="M102 565v90h580v-90h-580zM102 924q0 43 13 78.5t31.5 59.5t50 43t58.5 30t67 20t64.5 13t62.5 8l34 4v34q0 50 -32.5 81.5t-94.5 31.5q-36 0 -75.5 -13.5t-61.5 -27.5l-22 -14l-27 106q121 31 209 31q100 0 164.5 -54t64.5 -159v-266q0 -36 22 -60.5t52 -27.5l-10 -74 q-111 0 -154 84l-6 -6q-25 -23 -44.5 -38t-65 -32.5t-97.5 -17.5q-93 0 -148 43t-55 123zM223 944q0 -48 27 -74t78 -26q66 0 110.5 42t44.5 75v147q-260 -19 -260 -164z" />
<glyph unicode="&#xab;" horiz-adv-x="1157" d="M88 489l440 482h134l-396 -482q6 -8 75 -91t163.5 -199t157.5 -199h-134q-34 36 -125 137.5t-191.5 213.5t-123.5 138zM494 489l440 482h135l-397 -482q5 -7 75 -91t164 -199.5t156 -198.5h-133q-34 36 -125 137.5t-191.5 213.5t-123.5 138z" />
<glyph unicode="&#xac;" d="M53 760v127h979v-578h-125v451h-854z" />
<glyph unicode="&#xad;" horiz-adv-x="802" d="M115 403v136h571v-136h-571z" />
<glyph unicode="&#xae;" horiz-adv-x="1644" d="M111 694q0 143 56 274.5t151 227t226.5 152.5t276.5 57t277 -57t227.5 -152.5t152 -227t56.5 -274.5t-56.5 -274.5t-152 -227t-227.5 -152t-277 -56.5q-144 0 -275.5 56.5t-226.5 152t-151.5 227t-56.5 274.5zM184 694q0 -129 51 -247.5t136.5 -203.5t203.5 -135.5 t246 -50.5q129 0 247 50.5t204 135.5t137 203t51 248q0 129 -50.5 247t-136.5 203.5t-204 136t-248 50.5q-129 0 -247 -50.5t-203.5 -136t-136 -203.5t-50.5 -247zM545 242v905h280q122 0 200.5 -70.5t78.5 -187.5q0 -83 -51 -148t-131 -90q64 -38 145 -168l16 -26 q11 -18 49.5 -90.5t67.5 -124.5h-147q-61 128 -151 255.5t-126 127.5h-92v-383h-139zM684 711h133q63 0 102 50.5t39 121.5q0 77 -43.5 127.5t-107.5 50.5h-123v-350z" />
<glyph unicode="&#xaf;" horiz-adv-x="733" d="M82 1171v107h567v-107h-567z" />
<glyph unicode="&#xb0;" horiz-adv-x="806" d="M145 1147q0 107 75.5 182.5t182.5 75.5t183 -75.5t76 -182.5q0 -106 -76 -183t-183 -77t-182.5 77t-75.5 183zM207 1147q0 -82 57 -139.5t139 -57.5t138.5 57.5t56.5 139.5t-56.5 138t-138.5 56t-139 -56t-57 -138z" />
<glyph unicode="&#xb1;" d="M92 0v127h899v-127h-899zM94 631v127h387v395h127v-395h385v-127h-385v-393h-127v393h-387z" />
<glyph unicode="&#xb2;" horiz-adv-x="794" d="M113 621l47 45q131 126 227.5 256t99.5 223q0 75 -33 120.5t-92 45.5q-62 0 -167 -88l-72 88q144 98 256 98q122 0 195 -72.5t73 -181.5q0 -174 -313 -498h348v-96h-551z" />
<glyph unicode="&#xb3;" horiz-adv-x="772" d="M113 639l37 113q82 -55 132 -79t101 -24q53 0 86 44t33 108t-64 109t-151 48v89q84 3 138 42.5t54 102.5q0 46 -27.5 83.5t-82.5 37.5q-37 0 -88 -24t-95 -60l-47 98q135 82 244 82q120 0 187 -62t67 -141q0 -56 -34 -107.5t-85 -84.5q141 -77 141 -205 q0 -106 -81.5 -181t-206.5 -75q-126 0 -258 86z" />
<glyph unicode="&#xb4;" horiz-adv-x="733" d="M184 1067l197 326h166l-273 -326h-90z" />
<glyph unicode="&#xb5;" horiz-adv-x="1091" d="M45 -397q36 213 113.5 670.5t117.5 697.5h181l-113 -635q-2 -18 -2 -51q0 -74 34 -126.5t85 -52.5q78 0 152 44.5t132 109.5q7 48 20 123.5t40 233t59 354.5h183l-121 -690q-6 -20 -6 -76q0 -42 15 -65t54 -44l-55 -98l-76 12q-59 24 -98 103q-11 -6 -52.5 -31 t-65.5 -36.5t-64.5 -29t-83 -25t-88.5 -7.5q-77 0 -107 71l-76 -452h-178z" />
<glyph unicode="&#xb6;" horiz-adv-x="1013" d="M41 1065q0 147 101 237.5t264 90.5h567v-93h-154v-1718h-147v1718h-162v-1718h-150v1145q-140 22 -229.5 114.5t-89.5 223.5z" />
<glyph unicode="&#xb7;" horiz-adv-x="550" d="M164 602q0 45 32.5 78t77.5 33t78 -33t33 -78q0 -47 -32.5 -80t-78.5 -33t-78 33t-32 80z" />
<glyph unicode="&#xb8;" horiz-adv-x="733" d="M207 -420l20 88q22 -6 92 -14q37 0 68 19t31 55q0 55 -92 69l-39 6l47 160l86 -12l-23 -76q127 -38 127 -137q0 -59 -34.5 -100t-79.5 -56.5t-95 -15.5q-29 0 -108 14z" />
<glyph unicode="&#xb9;" horiz-adv-x="737" d="M113 1194l299 219l82 -16v-740h131v-96h-443v96h158v582q-21 -16 -62 -48t-73.5 -57.5t-42.5 -31.5z" />
<glyph unicode="&#xba;" horiz-adv-x="849" d="M102 565v90h646v-90h-646zM102 1077q0 147 94.5 239.5t231.5 92.5q141 0 230.5 -88t89.5 -231q0 -147 -93 -239.5t-235 -92.5q-145 0 -231.5 87t-86.5 232zM231 1090q0 -110 56 -183t141 -73q81 0 137 69.5t56 175.5t-58 179t-143 73q-86 0 -137.5 -68t-51.5 -173z" />
<glyph unicode="&#xbb;" horiz-adv-x="1157" d="M88 0l395 489l-395 482h133l441 -482q-19 -21 -123 -136.5t-194 -216t-124 -136.5h-133zM494 0l395 489l-395 482h133l442 -482q-38 -41 -221 -244.5t-221 -244.5h-133z" />
<glyph unicode="&#xbc;" horiz-adv-x="1656" d="M113 1194l299 219q30 -4 82 -16v-740h131v-96h-443v96h158v582q-21 -16 -62 -48t-73.5 -57.5t-42.5 -31.5zM377 0q165 255 475 738.5t420 654.5h104l-895 -1393h-104zM895 309l381 529h151v-527h117v-94h-117v-217h-155v217h-344zM1032 311h240v342z" />
<glyph unicode="&#xbd;" horiz-adv-x="1753" d="M113 1194l299 219l82 -16v-740h131v-96h-443v96h158v582q-21 -16 -62 -48t-73.5 -57.5t-42.5 -31.5zM377 0q165 255 475 738.5t420 654.5h104l-895 -1393h-104zM1071 59l47 45q328 328 328 480q0 75 -33 120.5t-92 45.5q-63 0 -168 -88l-72 88q144 98 256 98 q122 0 195.5 -72.5t73.5 -181.5q0 -173 -314 -498h348v-96h-550z" />
<glyph unicode="&#xbe;" horiz-adv-x="1626" d="M113 639l37 113q82 -55 132 -79t101 -24q53 0 86 44t33 108t-64 109t-151 48v89q84 3 138 42.5t54 102.5q0 46 -27.5 83.5t-82.5 37.5q-37 0 -88 -24t-95 -60l-47 98q135 82 244 82q120 0 187 -62t67 -141q0 -56 -34 -107.5t-85 -84.5q141 -77 141 -205 q0 -106 -81.5 -181t-206.5 -75q-126 0 -258 86zM346 0q165 255 475 738.5t420 654.5h105l-895 -1393h-105zM864 309l381 529h152v-527h116v-94h-116v-217h-156v217h-344zM1001 311h240v342z" />
<glyph unicode="&#xbf;" horiz-adv-x="925" d="M170 -117q0 74 36 143.5t87.5 126t103 112t87.5 124t36 139.5q0 36 -2 54h158q10 -58 10 -105q0 -79 -32 -149.5t-77 -121.5t-90.5 -98.5t-77.5 -102t-32 -111.5q0 -83 54 -139t128 -56q19 0 47 7t64.5 20t40.5 14l45 -135q-148 -39 -215 -39q-156 0 -263.5 89.5 t-107.5 227.5zM479 872q0 47 33 81t80 34t80 -34t33 -81q0 -46 -33 -78t-80 -32t-80 32t-33 78z" />
<glyph unicode="&#xc0;" horiz-adv-x="1310" d="M20 0l537 1393h199l534 -1393h-223l-141 371h-576l-143 -371h-187zM375 1815h168l194 -326h-88zM410 524h456l-164 424l-59 193h-10l-62 -195z" />
<glyph unicode="&#xc1;" horiz-adv-x="1310" d="M20 0l537 1393h199l534 -1393h-223l-141 371h-576l-143 -371h-187zM410 524h456l-164 424l-59 193h-10l-62 -195zM569 1489l197 326h166l-273 -326h-90z" />
<glyph unicode="&#xc2;" horiz-adv-x="1310" d="M20 0l537 1393h199l534 -1393h-223l-141 371h-576l-143 -371h-187zM360 1489l261 326h67l260 -326h-94l-201 199l-198 -199h-95zM410 524h456l-164 424l-59 193h-10l-62 -195z" />
<glyph unicode="&#xc3;" horiz-adv-x="1310" d="M20 0l537 1393h199l534 -1393h-223l-141 371h-576l-143 -371h-187zM377 1610l12 32q49 97 129 97q45 0 140 -45t133 -45q23 0 45 30t22 54l62 -56l-13 -32q-51 -99 -129 -99q-45 0 -139.5 45t-132.5 45q-23 0 -45.5 -30t-22.5 -54zM410 524h456l-164 424l-59 193h-10 l-62 -195z" />
<glyph unicode="&#xc4;" horiz-adv-x="1310" d="M20 0l537 1393h199l534 -1393h-223l-141 371h-576l-143 -371h-187zM387 1649q0 33 26.5 58.5t61.5 25.5t59.5 -25.5t24.5 -58.5q0 -35 -24.5 -59.5t-59.5 -24.5q-36 0 -62 24.5t-26 59.5zM410 524h456l-164 424l-59 193h-10l-62 -195zM731 1649q0 33 26.5 58.5t61.5 25.5 t59.5 -25.5t24.5 -58.5q0 -35 -24.5 -59.5t-59.5 -24.5q-36 0 -62 24.5t-26 59.5z" />
<glyph unicode="&#xc5;" horiz-adv-x="1310" d="M20 0l537 1393h199l534 -1393h-223l-141 371h-576l-143 -371h-187zM410 524h456l-164 424l-59 193h-10l-62 -195zM483 1669q0 67 47.5 114.5t114.5 47.5t114.5 -47.5t47.5 -114.5q0 -66 -47.5 -114t-114.5 -48t-114.5 48t-47.5 114zM528 1669q0 -47 35 -81t82 -34t81 34 t34 81t-34 82t-81 35t-82 -35t-35 -82z" />
<glyph unicode="&#xc6;" horiz-adv-x="1888" d="M20 0q60 110 434 718.5t412 674.5h981v-156h-639v-438h557v-154h-557v-489h660v-156h-873v524h-428l-327 -524h-220zM651 676h344v538l-22 3z" />
<glyph unicode="&#xc7;" horiz-adv-x="1226" d="M72 688q0 163 53.5 299.5t147 228t221 142.5t274.5 51q165 0 383 -88l-45 -166q-198 98 -342 98q-139 0 -246 -73t-164 -198.5t-57 -281.5q0 -252 131 -405.5t340 -153.5q113 0 340 86l57 -157q-219 -86 -405 -86q-148 0 -277 54t-218.5 148t-141 224t-51.5 278z M545 -420l20 88q22 -6 92 -14q37 0 68 19t31 55q0 55 -92 69l-39 6l47 160l86 -12l-23 -76q127 -38 127 -137q0 -59 -34.5 -100t-79.5 -56.5t-95 -15.5q-29 0 -108 14z" />
<glyph unicode="&#xc8;" horiz-adv-x="1019" d="M143 0v1393h836v-156h-623v-442h541v-156h-541v-483h643v-156h-856zM291 1815h168l194 -326h-88z" />
<glyph unicode="&#xc9;" horiz-adv-x="1019" d="M143 0v1393h836v-156h-623v-442h541v-156h-541v-483h643v-156h-856zM422 1489l196 326h166l-272 -326h-90z" />
<glyph unicode="&#xca;" horiz-adv-x="1019" d="M143 0v1393h836v-156h-623v-442h541v-156h-541v-483h643v-156h-856zM264 1489l260 326h68l260 -326h-94l-201 199l-199 -199h-94z" />
<glyph unicode="&#xcb;" horiz-adv-x="1019" d="M143 0v1393h836v-156h-623v-442h541v-156h-541v-483h643v-156h-856zM313 1649q0 33 26.5 58.5t61.5 25.5t59.5 -25.5t24.5 -58.5q0 -35 -24.5 -59.5t-59.5 -24.5q-36 0 -62 24.5t-26 59.5zM657 1649q0 33 26.5 58.5t61.5 25.5t59.5 -25.5t24.5 -58.5q0 -35 -24.5 -59.5 t-59.5 -24.5q-36 0 -62 24.5t-26 59.5z" />
<glyph unicode="&#xcc;" horiz-adv-x="462" d="M-31 1815h168l195 -326h-88zM125 0v1393h213v-1393h-213z" />
<glyph unicode="&#xcd;" horiz-adv-x="466" d="M125 0v1393h213v-1393h-213zM127 1489l197 326h165l-272 -326h-90z" />
<glyph unicode="&#xce;" horiz-adv-x="466" d="M-57 1489l260 326h67l260 -326h-94l-200 199l-199 -199h-94zM125 0v1393h213v-1393h-213z" />
<glyph unicode="&#xcf;" horiz-adv-x="466" d="M-25 1649q0 33 26.5 58.5t61.5 25.5t59.5 -25.5t24.5 -58.5q0 -35 -24.5 -59.5t-59.5 -24.5q-36 0 -62 24.5t-26 59.5zM125 0v1393h213v-1393h-213zM319 1649q0 32 27 58t62 26t59.5 -25.5t24.5 -58.5q0 -35 -24.5 -59.5t-59.5 -24.5q-36 0 -62.5 24.5t-26.5 59.5z" />
<glyph unicode="&#xd0;" horiz-adv-x="1413" d="M0 621v153h186v619h482q143 0 268 -50t216.5 -139t144.5 -220.5t53 -287.5q0 -133 -37.5 -247t-102 -195t-150.5 -139.5t-183.5 -86.5t-200.5 -28h-490v621h-186zM399 156h258q207 0 337 143.5t130 384.5q0 260 -127 406.5t-346 146.5h-252v-463h258v-153h-258v-465z" />
<glyph unicode="&#xd1;" horiz-adv-x="1658" d="M285 0v1393h200l756 -1051v1051h176v-1393h-186l-770 1067v-1067h-176zM582 1610l12 32q49 97 129 97q45 0 139.5 -45t132.5 -45q23 0 45.5 30t22.5 54l61 -56l-12 -32q-51 -99 -129 -99q-45 0 -139.5 45t-132.5 45q-23 0 -45.5 -30t-22.5 -54z" />
<glyph unicode="&#xd2;" horiz-adv-x="1501" d="M72 692q0 157 52 291.5t142.5 227.5t216 145.5t269.5 52.5q193 0 347.5 -90t242.5 -253t88 -370q0 -160 -53 -294.5t-144.5 -225.5t-216 -141.5t-266.5 -50.5q-144 0 -269.5 51.5t-215.5 143.5t-141.5 224.5t-51.5 288.5zM297 696q0 -249 127 -402t328 -153 q204 0 328 155.5t124 395.5q0 249 -127 404t-327 155q-203 0 -328 -158t-125 -397zM457 1815h168l194 -326h-88z" />
<glyph unicode="&#xd3;" horiz-adv-x="1501" d="M72 692q0 157 52 291.5t142.5 227.5t216 145.5t269.5 52.5q193 0 347.5 -90t242.5 -253t88 -370q0 -160 -53 -294.5t-144.5 -225.5t-216 -141.5t-266.5 -50.5q-144 0 -269.5 51.5t-215.5 143.5t-141.5 224.5t-51.5 288.5zM297 696q0 -249 127 -402t328 -153 q204 0 328 155.5t124 395.5q0 249 -127 404t-327 155q-203 0 -328 -158t-125 -397zM678 1489l196 326h166l-272 -326h-90z" />
<glyph unicode="&#xd4;" horiz-adv-x="1501" d="M72 692q0 157 52 291.5t142.5 227.5t216 145.5t269.5 52.5q193 0 347.5 -90t242.5 -253t88 -370q0 -160 -53 -294.5t-144.5 -225.5t-216 -141.5t-266.5 -50.5q-144 0 -269.5 51.5t-215.5 143.5t-141.5 224.5t-51.5 288.5zM297 696q0 -249 127 -402t328 -153 q204 0 328 155.5t124 395.5q0 249 -127 404t-327 155q-203 0 -328 -158t-125 -397zM477 1489l260 326h68l260 -326h-94l-201 199l-199 -199h-94z" />
<glyph unicode="&#xd5;" horiz-adv-x="1501" d="M72 692q0 157 52 291.5t142.5 227.5t216 145.5t269.5 52.5q193 0 347.5 -90t242.5 -253t88 -370q0 -160 -53 -294.5t-144.5 -225.5t-216 -141.5t-266.5 -50.5q-144 0 -269.5 51.5t-215.5 143.5t-141.5 224.5t-51.5 288.5zM297 696q0 -249 127 -402t328 -153 q204 0 328 155.5t124 395.5q0 249 -127 404t-327 155q-203 0 -328 -158t-125 -397zM494 1610l12 32q49 97 129 97q45 0 139.5 -45t132.5 -45q23 0 45.5 30t22.5 54l61 -56l-12 -32q-51 -99 -129 -99q-45 0 -139.5 45t-132.5 45q-23 0 -45.5 -30t-22.5 -54z" />
<glyph unicode="&#xd6;" horiz-adv-x="1501" d="M72 692q0 157 52 291.5t142.5 227.5t216 145.5t269.5 52.5q193 0 347.5 -90t242.5 -253t88 -370q0 -160 -53 -294.5t-144.5 -225.5t-216 -141.5t-266.5 -50.5q-144 0 -269.5 51.5t-215.5 143.5t-141.5 224.5t-51.5 288.5zM297 696q0 -249 127 -402t328 -153 q204 0 328 155.5t124 395.5q0 249 -127 404t-327 155q-203 0 -328 -158t-125 -397zM512 1649q0 33 26.5 58.5t61.5 25.5t59.5 -25.5t24.5 -58.5q0 -35 -24.5 -59.5t-59.5 -24.5q-36 0 -62 24.5t-26 59.5zM856 1649q0 33 26.5 58.5t61.5 25.5t59.5 -25.5t24.5 -58.5 q0 -35 -24.5 -59.5t-59.5 -24.5q-36 0 -62 24.5t-26 59.5z" />
<glyph unicode="&#xd7;" d="M109 250l346 348l-346 348l90 88l344 -346l346 346l88 -90l-344 -346q47 -51 344 -348l-88 -88l-346 348l-344 -348z" />
<glyph unicode="&#xd8;" horiz-adv-x="1456" d="M47 692q0 150 52.5 283t143 228t216.5 150.5t268 55.5q170 0 313 -94q9 13 47 68t56 83l131 -71l-100 -154q109 -99 171 -240.5t62 -304.5q0 -153 -53.5 -286.5t-145 -226t-217 -146t-266.5 -53.5q-172 0 -311 92l-103 -152l-133 76q9 14 35 49t37 53l33 48 q-111 95 -173.5 236t-62.5 306zM266 696q0 -213 125 -370l567 854q-109 71 -233 71q-134 0 -240 -76.5t-162.5 -202.5t-56.5 -276zM496 211q103 -70 231 -70q135 0 241.5 75t164 200.5t57.5 275.5q0 215 -127 371z" />
<glyph unicode="&#xd9;" horiz-adv-x="1374" d="M143 510v883h201v-891q0 -106 51.5 -190.5t132 -128.5t172.5 -44q150 0 254.5 104t104.5 251v899h192v-875q0 -145 -71 -267.5t-199 -194.5t-285 -72q-112 0 -213 39t-176.5 107t-119.5 167t-44 213zM453 1815h168l194 -326h-88z" />
<glyph unicode="&#xda;" horiz-adv-x="1374" d="M143 510v883h201v-891q0 -106 51.5 -190.5t132 -128.5t172.5 -44q150 0 254.5 104t104.5 251v899h192v-875q0 -145 -71 -267.5t-199 -194.5t-285 -72q-112 0 -213 39t-176.5 107t-119.5 167t-44 213zM543 1489l196 326h166l-272 -326h-90z" />
<glyph unicode="&#xdb;" horiz-adv-x="1374" d="M143 510v883h201v-891q0 -106 51.5 -190.5t132 -128.5t172.5 -44q150 0 254.5 104t104.5 251v899h192v-875q0 -145 -71 -267.5t-199 -194.5t-285 -72q-112 0 -213 39t-176.5 107t-119.5 167t-44 213zM430 1489l260 326h68l260 -326h-94l-201 199l-199 -199h-94z" />
<glyph unicode="&#xdc;" horiz-adv-x="1374" d="M143 510v883h201v-891q0 -106 51.5 -190.5t132 -128.5t172.5 -44q150 0 254.5 104t104.5 251v899h192v-875q0 -145 -71 -267.5t-199 -194.5t-285 -72q-112 0 -213 39t-176.5 107t-119.5 167t-44 213zM465 1649q0 33 26.5 58.5t61.5 25.5t59.5 -25.5t24.5 -58.5 q0 -35 -24.5 -59.5t-59.5 -24.5q-36 0 -62 24.5t-26 59.5zM809 1649q0 33 26.5 58.5t61.5 25.5t59.5 -25.5t24.5 -58.5q0 -35 -24.5 -59.5t-59.5 -24.5q-36 0 -62 24.5t-26 59.5z" />
<glyph unicode="&#xdd;" horiz-adv-x="1218" d="M29 1393h245q307 -496 363 -596l367 596h202l-483 -787v-606h-213v602q-76 121 -234 385.5t-247 405.5zM457 1489l196 326h166l-272 -326h-90z" />
<glyph unicode="&#xde;" d="M143 0v1393h213v-291h213q87 0 166.5 -27.5t142 -77.5t99.5 -128.5t37 -172.5q0 -125 -63.5 -218.5t-166.5 -140t-229 -46.5h-199v-291h-213zM356 440h209q96 0 164 70.5t68 183.5t-68 185.5t-174 72.5h-199v-512z" />
<glyph unicode="&#xdf;" horiz-adv-x="1062" d="M193 0v1016q0 171 110 282t279 111q168 0 271 -93.5t103 -250.5q0 -77 -46.5 -170t-116.5 -147q57 -30 106.5 -76.5t77.5 -100.5q45 -79 45 -170q0 -175 -112.5 -296t-286.5 -121q-81 0 -146 14l21 137q45 -10 110 -10q87 0 148 75t61 189q0 93 -75 176t-169 97v141 q53 6 96 47t64 94t21 103q0 95 -51 158t-130 63q-86 0 -134 -65t-48 -183v-1020h-198z" />
<glyph unicode="&#xe0;" horiz-adv-x="1034" d="M61 246q0 56 14 103.5t42 83t60 63.5t78 48.5t85.5 35t93 25t89 16.5t85.5 12l58 8v41q0 74 -52 120t-151 46q-58 0 -122 -20.5t-99 -41.5l-35 -20l-41 172q189 49 332 49q75 0 140 -20t115.5 -59.5t79.5 -103.5t29 -147v-403q0 -52 35 -87t86 -40l-22 -127 q-165 0 -242 131q-147 -147 -346 -147q-147 0 -229.5 67.5t-82.5 194.5zM217 1393h168l195 -326h-88zM250 276q0 -68 46 -105.5t126 -37.5q105 0 174.5 59t69.5 107v215q-86 -6 -157 -21.5t-131.5 -43t-94 -71.5t-33.5 -102z" />
<glyph unicode="&#xe1;" horiz-adv-x="1034" d="M61 246q0 56 14 103.5t42 83t60 63.5t78 48.5t85.5 35t93 25t89 16.5t85.5 12l58 8v41q0 74 -52 120t-151 46q-58 0 -122 -20.5t-99 -41.5l-35 -20l-41 172q189 49 332 49q75 0 140 -20t115.5 -59.5t79.5 -103.5t29 -147v-403q0 -52 35 -87t86 -40l-22 -127 q-165 0 -242 131q-147 -147 -346 -147q-147 0 -229.5 67.5t-82.5 194.5zM250 276q0 -68 46 -105.5t126 -37.5q105 0 174.5 59t69.5 107v215q-86 -6 -157 -21.5t-131.5 -43t-94 -71.5t-33.5 -102zM403 1067l197 326h166l-272 -326h-91z" />
<glyph unicode="&#xe2;" horiz-adv-x="1034" d="M61 246q0 56 14 103.5t42 83t60 63.5t78 48.5t85.5 35t93 25t89 16.5t85.5 12l58 8v41q0 74 -52 120t-151 46q-58 0 -122 -20.5t-99 -41.5l-35 -20l-41 172q189 49 332 49q75 0 140 -20t115.5 -59.5t79.5 -103.5t29 -147v-403q0 -52 35 -87t86 -40l-22 -127 q-165 0 -242 131q-147 -147 -346 -147q-147 0 -229.5 67.5t-82.5 194.5zM217 1067l260 326h68l260 -326h-94l-201 199l-199 -199h-94zM250 276q0 -68 46 -105.5t126 -37.5q105 0 174.5 59t69.5 107v215q-86 -6 -157 -21.5t-131.5 -43t-94 -71.5t-33.5 -102z" />
<glyph unicode="&#xe3;" horiz-adv-x="1034" d="M61 246q0 56 14 103.5t42 83t60 63.5t78 48.5t85.5 35t93 25t89 16.5t85.5 12l58 8v41q0 74 -52 120t-151 46q-58 0 -122 -20.5t-99 -41.5l-35 -20l-41 172q189 49 332 49q75 0 140 -20t115.5 -59.5t79.5 -103.5t29 -147v-403q0 -52 35 -87t86 -40l-22 -127 q-165 0 -242 131q-147 -147 -346 -147q-147 0 -229.5 67.5t-82.5 194.5zM231 1188l13 33q49 96 129 96q45 0 139.5 -45t132.5 -45q23 0 45.5 30t22.5 54l61 -56l-12 -32q-51 -99 -129 -99q-45 0 -140 45t-133 45q-23 0 -45 -30t-22 -54zM250 276q0 -68 46 -105.5t126 -37.5 q105 0 174.5 59t69.5 107v215q-86 -6 -157 -21.5t-131.5 -43t-94 -71.5t-33.5 -102z" />
<glyph unicode="&#xe4;" horiz-adv-x="1034" d="M61 246q0 56 14 103.5t42 83t60 63.5t78 48.5t85.5 35t93 25t89 16.5t85.5 12l58 8v41q0 74 -52 120t-151 46q-58 0 -122 -20.5t-99 -41.5l-35 -20l-41 172q189 49 332 49q75 0 140 -20t115.5 -59.5t79.5 -103.5t29 -147v-403q0 -52 35 -87t86 -40l-22 -127 q-165 0 -242 131q-147 -147 -346 -147q-147 0 -229.5 67.5t-82.5 194.5zM240 1227q0 33 26.5 58.5t61.5 25.5t59.5 -25.5t24.5 -58.5q0 -35 -24.5 -59.5t-59.5 -24.5q-36 0 -62 24.5t-26 59.5zM250 276q0 -68 46 -105.5t126 -37.5q105 0 174.5 59t69.5 107v215 q-86 -6 -157 -21.5t-131.5 -43t-94 -71.5t-33.5 -102zM584 1227q0 33 26.5 58.5t61.5 25.5t59.5 -25.5t24.5 -58.5q0 -35 -24.5 -59.5t-59.5 -24.5q-36 0 -62 24.5t-26 59.5z" />
<glyph unicode="&#xe5;" horiz-adv-x="1034" d="M61 246q0 56 14 103.5t42 83t60 63.5t78 48.5t85.5 35t93 25t89 16.5t85.5 12l58 8v41q0 74 -52 120t-151 46q-58 0 -122 -20.5t-99 -41.5l-35 -20l-41 172q189 49 332 49q75 0 140 -20t115.5 -59.5t79.5 -103.5t29 -147v-403q0 -52 35 -87t86 -40l-22 -127 q-165 0 -242 131q-147 -147 -346 -147q-147 0 -229.5 67.5t-82.5 194.5zM250 276q0 -68 46 -105.5t126 -37.5q105 0 174.5 59t69.5 107v215q-86 -6 -157 -21.5t-131.5 -43t-94 -71.5t-33.5 -102zM342 1247q0 67 47 114.5t115 47.5t115 -47.5t47 -114.5q0 -66 -47.5 -114 t-114.5 -48t-114.5 48t-47.5 114zM387 1247q0 -47 34.5 -80.5t82.5 -33.5q47 0 80.5 33.5t33.5 80.5q0 48 -33.5 82.5t-80.5 34.5t-82 -35t-35 -82z" />
<glyph unicode="&#xe6;" horiz-adv-x="1615" d="M61 244q0 66 19.5 120t51.5 91t77 66t93 46.5t103.5 30t103.5 20t98 13.5h1.5h1.5l58 8v47q0 67 -45.5 113.5t-137.5 46.5q-56 0 -123.5 -18.5t-108 -36.5t-40.5 -21q-21 76 -43 170q172 47 311 47q100 0 188 -44.5t128 -121.5q56 83 152.5 124.5t209.5 41.5 q76 0 138 -23t103.5 -64t71 -92.5t46 -114.5t23.5 -123.5t7 -125.5h-686q13 -151 98.5 -238t200.5 -87q127 0 332 100l61 -119q-226 -116 -391 -116q-139 0 -253 63t-175 170q-53 -113 -146 -173t-208 -60q-144 0 -232 67.5t-88 192.5zM252 274q0 -69 45 -106t127 -37 q115 0 180.5 84t65.5 219v78q-86 -6 -157 -21.5t-132 -43t-95 -71.5t-34 -102zM868 584h463q6 18 6 55q0 83 -51.5 148t-152.5 65q-95 0 -170 -66.5t-95 -201.5z" />
<glyph unicode="&#xe7;" horiz-adv-x="919" d="M61 475q0 233 140 372.5t366 139.5q149 0 299 -59l-37 -135q-147 61 -264 61q-138 0 -217.5 -98.5t-79.5 -253.5q0 -166 88 -274.5t236 -108.5q97 0 252 47l35 -129q-175 -53 -304 -53q-233 0 -373.5 129.5t-140.5 361.5zM352 -420l21 88q22 -6 92 -14q36 0 67 19t31 55 q0 55 -92 69l-39 6l47 160l86 -12l-22 -76q127 -38 127 -137q0 -59 -34.5 -100t-79.5 -56.5t-95 -15.5q-30 0 -109 14z" />
<glyph unicode="&#xe8;" horiz-adv-x="1015" d="M61 483q0 235 130.5 369.5t347.5 134.5q95 0 168 -31.5t117.5 -82t72.5 -122.5t38.5 -145t10.5 -157h-682q6 -80 35.5 -144.5t73.5 -103.5t94.5 -59.5t101.5 -20.5q128 0 326 100l59 -119q-216 -118 -397 -118q-224 0 -360 131t-136 368zM236 1393h167l195 -326h-88z M270 586h461q8 24 8 55q0 82 -52.5 145.5t-154.5 63.5q-95 0 -168.5 -64t-93.5 -200z" />
<glyph unicode="&#xe9;" horiz-adv-x="1015" d="M61 483q0 235 130.5 369.5t347.5 134.5q95 0 168 -31.5t117.5 -82t72.5 -122.5t38.5 -145t10.5 -157h-682q6 -80 35.5 -144.5t73.5 -103.5t94.5 -59.5t101.5 -20.5q128 0 326 100l59 -119q-216 -118 -397 -118q-224 0 -360 131t-136 368zM270 586h461q8 24 8 55 q0 82 -52.5 145.5t-154.5 63.5q-95 0 -168.5 -64t-93.5 -200zM465 1067l197 326h165l-272 -326h-90z" />
<glyph unicode="&#xea;" horiz-adv-x="1015" d="M61 483q0 235 130.5 369.5t347.5 134.5q95 0 168 -31.5t117.5 -82t72.5 -122.5t38.5 -145t10.5 -157h-682q6 -80 35.5 -144.5t73.5 -103.5t94.5 -59.5t101.5 -20.5q128 0 326 100l59 -119q-216 -118 -397 -118q-224 0 -360 131t-136 368zM252 1067l260 326h68l260 -326 h-95l-200 199l-199 -199h-94zM270 586h461q8 24 8 55q0 82 -52.5 145.5t-154.5 63.5q-95 0 -168.5 -64t-93.5 -200z" />
<glyph unicode="&#xeb;" horiz-adv-x="1015" d="M61 483q0 235 130.5 369.5t347.5 134.5q95 0 168 -31.5t117.5 -82t72.5 -122.5t38.5 -145t10.5 -157h-682q6 -80 35.5 -144.5t73.5 -103.5t94.5 -59.5t101.5 -20.5q128 0 326 100l59 -119q-216 -118 -397 -118q-224 0 -360 131t-136 368zM270 586h461q8 24 8 55 q0 82 -52.5 145.5t-154.5 63.5q-95 0 -168.5 -64t-93.5 -200zM281 1227q0 33 26.5 58.5t61.5 25.5t59.5 -25.5t24.5 -58.5q0 -35 -24.5 -59.5t-59.5 -24.5q-36 0 -62 24.5t-26 59.5zM625 1227q0 33 26.5 58.5t61.5 25.5t59.5 -25.5t24.5 -58.5q0 -35 -24.5 -59.5 t-59.5 -24.5q-36 0 -62 24.5t-26 59.5z" />
<glyph unicode="&#xec;" horiz-adv-x="448" d="M-37 1393h168l195 -326h-88zM123 0v971h201v-971h-201z" />
<glyph unicode="&#xed;" horiz-adv-x="448" d="M121 1067l196 326h166l-272 -326h-90zM123 0v971h201v-971h-201z" />
<glyph unicode="&#xee;" horiz-adv-x="448" d="M-66 1067l261 326h67l260 -326h-94l-201 199l-198 -199h-95zM125 0v971h201v-971h-201z" />
<glyph unicode="&#xef;" horiz-adv-x="448" d="M-39 1227q0 33 26.5 58.5t61.5 25.5t59.5 -25.5t24.5 -58.5q0 -35 -24.5 -59.5t-59.5 -24.5q-36 0 -62 24.5t-26 59.5zM123 0v971h201v-971h-201zM305 1227q0 33 26.5 58.5t61.5 25.5t59.5 -25.5t24.5 -58.5q0 -35 -24.5 -59.5t-59.5 -24.5q-36 0 -62 24.5t-26 59.5z" />
<glyph unicode="&#xf0;" horiz-adv-x="1120" d="M61 477q0 133 66 250.5t180.5 188.5t247.5 71q61 0 124 -29.5t97 -72.5q-55 154 -196 295l-271 -133l-49 83l238 119q-56 51 -136 99l101 116q111 -68 190 -139l260 133l52 -86l-234 -117q151 -149 240 -337q88 -189 88 -375q0 -266 -162 -424q-68 -65 -158.5 -100 t-191.5 -35q-140 0 -252 67t-173 179t-61 247zM244 489q0 -148 94 -259t221 -111q124 0 207 86q104 107 104 295q0 147 -97.5 252.5t-225.5 105.5q-130 0 -216.5 -108.5t-86.5 -260.5z" />
<glyph unicode="&#xf1;" horiz-adv-x="1062" d="M125 0v971h197v-135q78 81 166.5 116t164.5 35q130 0 208.5 -78t78.5 -233v-676h-197v621q0 99 -42.5 153.5t-114.5 54.5q-64 0 -134.5 -35.5t-129.5 -105.5v-688h-197zM268 1188l13 33q49 96 129 96q45 0 139.5 -45t132.5 -45q23 0 45.5 30t22.5 54l61 -56l-12 -32 q-51 -99 -129 -99q-45 0 -140 45t-133 45q-23 0 -45 -30t-22 -54z" />
<glyph unicode="&#xf2;" horiz-adv-x="1148" d="M61 477q0 154 69 271t186 178t262 61q231 0 370 -132t139 -359q0 -230 -146.5 -371t-373.5 -141q-229 0 -367.5 133.5t-138.5 359.5zM266 504q0 -167 91.5 -278t226.5 -111q132 0 216.5 101t84.5 253q0 167 -91 275t-227 108q-133 0 -217 -99t-84 -249zM305 1393h168 l195 -326h-88z" />
<glyph unicode="&#xf3;" horiz-adv-x="1148" d="M61 477q0 154 69 271t186 178t262 61q231 0 370 -132t139 -359q0 -230 -146.5 -371t-373.5 -141q-229 0 -367.5 133.5t-138.5 359.5zM266 504q0 -167 91.5 -278t226.5 -111q132 0 216.5 101t84.5 253q0 167 -91 275t-227 108q-133 0 -217 -99t-84 -249zM502 1067l196 326 h166l-272 -326h-90z" />
<glyph unicode="&#xf4;" horiz-adv-x="1148" d="M61 477q0 154 69 271t186 178t262 61q231 0 370 -132t139 -359q0 -230 -146.5 -371t-373.5 -141q-229 0 -367.5 133.5t-138.5 359.5zM266 504q0 -167 91.5 -278t226.5 -111q132 0 216.5 101t84.5 253q0 167 -91 275t-227 108q-133 0 -217 -99t-84 -249zM297 1067l260 326 h68l260 -326h-94l-201 199l-199 -199h-94z" />
<glyph unicode="&#xf5;" horiz-adv-x="1148" d="M61 477q0 154 69 271t186 178t262 61q231 0 370 -132t139 -359q0 -230 -146.5 -371t-373.5 -141q-229 0 -367.5 133.5t-138.5 359.5zM266 504q0 -167 91.5 -278t226.5 -111q132 0 216.5 101t84.5 253q0 167 -91 275t-227 108q-133 0 -217 -99t-84 -249zM317 1188l13 33 q49 96 129 96q45 0 139.5 -45t132.5 -45q23 0 45.5 30t22.5 54l61 -56l-12 -32q-51 -99 -129 -99q-45 0 -140 45t-133 45q-23 0 -45 -30t-22 -54z" />
<glyph unicode="&#xf6;" horiz-adv-x="1148" d="M61 477q0 154 69 271t186 178t262 61q231 0 370 -132t139 -359q0 -230 -146.5 -371t-373.5 -141q-229 0 -367.5 133.5t-138.5 359.5zM266 504q0 -167 91.5 -278t226.5 -111q132 0 216.5 101t84.5 253q0 167 -91 275t-227 108q-133 0 -217 -99t-84 -249zM324 1227 q0 33 26.5 58.5t61.5 25.5t59.5 -25.5t24.5 -58.5q0 -35 -24.5 -59.5t-59.5 -24.5q-36 0 -62 24.5t-26 59.5zM668 1227q0 33 26.5 58.5t61.5 25.5t59.5 -25.5t24.5 -58.5q0 -35 -24.5 -59.5t-59.5 -24.5q-36 0 -62 24.5t-26 59.5z" />
<glyph unicode="&#xf7;" d="M53 532v130h979v-130h-979zM453 266q0 37 27 62.5t63 25.5q37 0 63.5 -25t26.5 -63q0 -39 -26.5 -64.5t-63.5 -25.5q-36 0 -63 25.5t-27 64.5zM453 932q0 37 27 62.5t63 25.5q37 0 63.5 -25t26.5 -63q0 -39 -26.5 -64.5t-63.5 -25.5q-36 0 -63 25.5t-27 64.5z" />
<glyph unicode="&#xf8;" horiz-adv-x="1169" d="M61 477q0 154 70.5 271.5t189 178t265.5 60.5q135 0 239 -43l82 117l109 -78l-76 -106q166 -137 166 -381q0 -230 -149.5 -371t-381.5 -141q-130 0 -231 43l-82 -117l-110 78l75 106q-79 64 -122.5 162t-43.5 221zM270 504q0 -146 68 -254l397 569q-68 47 -160 47 q-135 0 -220 -103t-85 -259zM432 150q73 -50 160 -50q135 0 221 105.5t86 263.5q0 144 -68 252z" />
<glyph unicode="&#xf9;" horiz-adv-x="1060" d="M125 348v623h197v-621q0 -100 41.5 -154.5t111.5 -54.5q49 0 90 12.5t75 40t52.5 47t48.5 56.5v674h197v-971h-197v131q-63 -63 -147 -105t-164 -42q-63 0 -116.5 21t-96.5 63t-67.5 114t-24.5 166zM293 1393h168l194 -326h-88z" />
<glyph unicode="&#xfa;" horiz-adv-x="1060" d="M125 348v623h197v-621q0 -100 41.5 -154.5t111.5 -54.5q49 0 90 12.5t75 40t52.5 47t48.5 56.5v674h197v-971h-197v131q-63 -63 -147 -105t-164 -42q-63 0 -116.5 21t-96.5 63t-67.5 114t-24.5 166zM387 1067l197 326h166l-273 -326h-90z" />
<glyph unicode="&#xfb;" horiz-adv-x="1060" d="M125 348v623h197v-621q0 -100 41.5 -154.5t111.5 -54.5q49 0 90 12.5t75 40t52.5 47t48.5 56.5v674h197v-971h-197v131q-63 -63 -147 -105t-164 -42q-63 0 -116.5 21t-96.5 63t-67.5 114t-24.5 166zM248 1067l260 326h67l261 -326h-95l-200 199l-199 -199h-94z" />
<glyph unicode="&#xfc;" horiz-adv-x="1060" d="M125 348v623h197v-621q0 -100 41.5 -154.5t111.5 -54.5q49 0 90 12.5t75 40t52.5 47t48.5 56.5v674h197v-971h-197v131q-63 -63 -147 -105t-164 -42q-63 0 -116.5 21t-96.5 63t-67.5 114t-24.5 166zM281 1227q0 33 26.5 58.5t61.5 25.5t59.5 -25.5t24.5 -58.5 q0 -35 -24.5 -59.5t-59.5 -24.5q-36 0 -62 24.5t-26 59.5zM625 1227q0 33 26.5 58.5t61.5 25.5t59.5 -25.5t24.5 -58.5q0 -35 -24.5 -59.5t-59.5 -24.5q-36 0 -62 24.5t-26 59.5z" />
<glyph unicode="&#xfd;" horiz-adv-x="1003" d="M-2 -299q224 0 293 66q58 53 125 217l-410 987h203l301 -731q48 121 147.5 365.5t147.5 365.5h186q-379 -930 -389 -953q-114 -273 -192 -348q-55 -53 -154.5 -74.5t-257.5 -21.5v127zM360 1067l197 326h166l-272 -326h-91z" />
<glyph unicode="&#xfe;" horiz-adv-x="1081" d="M123 -418v1909h199v-586q47 25 75 39t73.5 28.5t82.5 14.5q209 0 333 -125t124 -368q0 -231 -127.5 -370.5t-327.5 -139.5q-61 0 -127 23.5t-106 53.5v-479h-199zM322 205q30 -28 89 -56t126 -28q134 0 201 94.5t67 265.5q0 166 -73.5 270.5t-203.5 104.5q-96 0 -206 -90 v-561z" />
<glyph unicode="&#xff;" horiz-adv-x="1003" d="M0 -299q224 0 293 66q58 53 125 217l-410 987h203l301 -731q48 121 147.5 365.5t147.5 365.5h186q-379 -930 -389 -953q-114 -273 -192 -348q-55 -53 -154.5 -74.5t-257.5 -21.5v127zM274 1227q0 33 26.5 58.5t61.5 25.5t59.5 -25.5t24.5 -58.5q0 -35 -24.5 -59.5 t-59.5 -24.5q-36 0 -62 24.5t-26 59.5zM618 1227q0 32 27 58t62 26t59.5 -25.5t24.5 -58.5q0 -35 -24.5 -59.5t-59.5 -24.5q-36 0 -62.5 24.5t-26.5 59.5z" />
<glyph unicode="&#x152;" horiz-adv-x="2029" d="M72 692q0 157 52.5 291.5t143 227.5t216 145.5t268.5 52.5q102 0 203.5 -38.5t181.5 -102.5v125h852v-156h-639v-442h557v-156h-557v-483h659v-156h-872v125q-81 -65 -183.5 -103t-203.5 -38q-144 0 -269.5 51.5t-215.5 143.5t-141.5 224.5t-51.5 288.5zM297 696 q0 -248 127.5 -401.5t327.5 -153.5q131 0 230.5 69.5t154.5 192.5v584q-57 124 -157 194t-230 70q-203 0 -328 -158t-125 -397z" />
<glyph unicode="&#x153;" horiz-adv-x="1828" d="M61 477q0 150 68.5 268t182.5 180t251 62q136 0 247.5 -65.5t168.5 -159.5q46 97 154 161t229 64q97 0 170.5 -35t115.5 -88t68 -127.5t34.5 -142.5t8.5 -145h-682q13 -153 102.5 -244.5t206.5 -91.5q53 0 142 29.5t180 74.5l59 -119q-209 -114 -385 -114 q-125 0 -241.5 67t-167.5 166q-59 -100 -174.5 -166.5t-259.5 -66.5q-206 0 -342 140t-136 353zM268 496q0 -163 89.5 -273t222.5 -110q94 0 165 53.5t105.5 136t34.5 178.5q0 158 -91.5 267.5t-224.5 109.5q-134 0 -217.5 -104t-83.5 -258zM1083 586h461q4 17 8 47 q0 38 -10.5 75t-33.5 71.5t-64.5 55.5t-97.5 21q-95 0 -169.5 -67t-93.5 -203z" />
<glyph unicode="&#x178;" horiz-adv-x="1218" d="M20 1393h246q307 -496 363 -596l366 596h203l-483 -787v-606h-213v602q-76 120 -234.5 385t-247.5 406zM352 1649q0 33 26.5 58.5t61.5 25.5t59.5 -25.5t24.5 -58.5q0 -35 -24.5 -59.5t-59.5 -24.5q-36 0 -62 24.5t-26 59.5zM696 1649q0 33 26.5 58.5t61.5 25.5 t59.5 -25.5t24.5 -58.5q0 -35 -24.5 -59.5t-59.5 -24.5q-36 0 -62 24.5t-26 59.5z" />
<glyph unicode="&#x2c6;" horiz-adv-x="733" d="M72 1067l260 326h67l260 -326h-94l-200 199l-199 -199h-94z" />
<glyph unicode="&#x2dc;" horiz-adv-x="733" d="M96 1188l13 33q49 96 129 96q45 0 139.5 -45t132.5 -45q23 0 45.5 30t22.5 54l61 -56l-12 -32q-51 -99 -129 -99q-45 0 -140 45t-133 45q-23 0 -45 -30t-22 -54z" />
<glyph unicode="&#x2000;" horiz-adv-x="915" />
<glyph unicode="&#x2001;" horiz-adv-x="1831" />
<glyph unicode="&#x2002;" horiz-adv-x="915" />
<glyph unicode="&#x2003;" horiz-adv-x="1831" />
<glyph unicode="&#x2004;" horiz-adv-x="610" />
<glyph unicode="&#x2005;" horiz-adv-x="457" />
<glyph unicode="&#x2006;" horiz-adv-x="305" />
<glyph unicode="&#x2007;" horiz-adv-x="305" />
<glyph unicode="&#x2008;" horiz-adv-x="228" />
<glyph unicode="&#x2009;" horiz-adv-x="366" />
<glyph unicode="&#x200a;" horiz-adv-x="101" />
<glyph unicode="&#x2010;" horiz-adv-x="802" d="M115 403v136h571v-136h-571z" />
<glyph unicode="&#x2011;" horiz-adv-x="802" d="M115 403v136h571v-136h-571z" />
<glyph unicode="&#x2012;" horiz-adv-x="802" d="M115 403v136h571v-136h-571z" />
<glyph unicode="&#x2013;" horiz-adv-x="1181" d="M61 434v107h1059v-107h-1059z" />
<glyph unicode="&#x2014;" horiz-adv-x="1835" d="M61 434v107h1713v-107h-1713z" />
<glyph unicode="&#x2018;" horiz-adv-x="452" d="M82 985q0 61 24 125.5t64 120.5t77.5 98t78.5 80l45 -45q-45 -41 -90 -106.5t-45 -118.5q0 -64 36 -111q41 -55 41 -94q0 -42 -30 -73.5t-78 -31.5q-58 0 -90.5 42.5t-32.5 113.5z" />
<glyph unicode="&#x2019;" horiz-adv-x="411" d="M61 874q45 43 89.5 108t44.5 118q0 65 -37 110q-41 55 -41 95q0 42 30 73t78 31q58 0 91.5 -42.5t33.5 -113.5q0 -61 -24 -125.5t-64 -120.5t-78 -98.5t-80 -79.5z" />
<glyph unicode="&#x201a;" horiz-adv-x="579" d="M137 -324q45 42 89 107.5t44 118.5q0 65 -37 110q-40 54 -40 94q0 42 30 73.5t78 31.5q58 0 91.5 -42.5t33.5 -113.5q0 -61 -24 -125.5t-64 -120.5t-78 -98.5t-80 -79.5z" />
<glyph unicode="&#x201c;" horiz-adv-x="827" d="M82 985q0 61 24 125.5t64 120.5t77.5 98t78.5 80l45 -45q-45 -41 -90 -106.5t-45 -118.5q0 -64 36 -111q41 -55 41 -94q0 -42 -30 -73.5t-78 -31.5q-58 0 -90.5 42.5t-32.5 113.5zM457 985q0 61 24 125.5t63.5 120.5t77 98t78.5 80l45 -45q-45 -41 -90 -106.5t-45 -118.5 q0 -63 37 -111q41 -55 41 -94q0 -42 -30 -73.5t-78 -31.5q-58 0 -90.5 42.5t-32.5 113.5z" />
<glyph unicode="&#x201d;" horiz-adv-x="827" d="M82 874q45 42 89 107.5t44 118.5q0 65 -37 110q-41 55 -41 95q0 42 30.5 73t78.5 31q58 0 91.5 -42.5t33.5 -113.5q0 -61 -24 -125.5t-64 -120.5t-78 -98.5t-80 -79.5zM457 874q45 42 89 107.5t44 118.5q0 65 -37 110q-41 55 -41 95q0 42 30.5 73t78.5 31q58 0 91 -42.5 t33 -113.5q0 -61 -24 -125.5t-63.5 -120.5t-77.5 -98.5t-80 -79.5z" />
<glyph unicode="&#x201e;" horiz-adv-x="935" d="M127 -324q45 42 89 107.5t44 118.5q0 65 -37 110q-41 55 -41 94q0 42 30.5 73.5t78.5 31.5q58 0 91.5 -42.5t33.5 -113.5q0 -61 -24 -125.5t-64 -120.5t-78 -98.5t-80 -79.5zM502 -324q45 42 89 107.5t44 118.5q0 65 -37 110q-41 55 -41 94q0 42 30.5 73.5t78.5 31.5 q58 0 91.5 -42.5t33.5 -113.5q0 -61 -24 -125.5t-64 -120.5t-78 -98.5t-80 -79.5z" />
<glyph unicode="&#x2022;" horiz-adv-x="737" d="M137 698q0 97 67.5 165.5t162.5 68.5q97 0 165 -68.5t68 -165.5t-68 -165t-165 -68q-95 0 -162.5 68t-67.5 165z" />
<glyph unicode="&#x2026;" horiz-adv-x="1359" d="M127 78q0 44 32.5 77t78.5 33q45 0 77.5 -32.5t32.5 -77.5q0 -47 -32 -79t-78 -32t-78.5 32t-32.5 79zM569 78q0 44 32.5 77t78.5 33t79.5 -33t33.5 -77q0 -47 -33.5 -79t-79.5 -32t-78.5 32t-32.5 79zM1010 78q0 45 32.5 77.5t77.5 32.5q47 0 80 -32.5t33 -77.5 q0 -47 -33 -79t-80 -32q-46 0 -78 32t-32 79z" />
<glyph unicode="&#x202f;" horiz-adv-x="366" />
<glyph unicode="&#x2039;" horiz-adv-x="768" d="M96 489l441 482h135l-398 -482q5 -7 75.5 -91t164.5 -199.5t156 -198.5h-133q-34 36 -124 136.5t-194 216t-123 136.5z" />
<glyph unicode="&#x203a;" horiz-adv-x="765" d="M96 0l393 489l-393 482h131l443 -482q-38 -41 -221.5 -244.5t-221.5 -244.5h-131z" />
<glyph unicode="&#x205f;" horiz-adv-x="457" />
<glyph unicode="&#x20ac;" horiz-adv-x="1302" d="M41 494v104h158q-4 27 -4 86v41h-154v104h162q44 260 232 420t448 160q164 0 379 -88l-43 -164q-205 98 -340 98q-178 0 -299.5 -120.5t-151.5 -305.5h424v-104h-434q-2 -4 -2 -31q0 -63 8 -96h428v-104h-410q41 -164 160 -259.5t283 -95.5q103 0 315 80l57 -156 q-205 -79 -383 -79q-247 0 -425.5 142t-235.5 368h-172z" />
<glyph unicode="&#x2122;" horiz-adv-x="1871" d="M78 1313v80h708v-80h-288v-756h-129v756h-291zM874 557l19 836h121l291 -402l290 402h119l19 -836h-131l-17 541v104l-268 -373h-53l-269 371l-2 -98l-12 -545h-107z" />
<glyph unicode="&#x25fc;" horiz-adv-x="972" d="M0 0v973h973v-973h-973z" />
<glyph unicode="&#xfb01;" horiz-adv-x="1169" d="M41 840v131h143v180q0 74 23 135t62 101.5t91.5 68t110 39.5t119.5 12q80 -7 149 -28l-63 -166q-3 0 -25 18q-53 37 -92 37q-87 0 -132.5 -55t-45.5 -152v-190h672v-971h-201v840h-471v-840h-197v840h-143zM834 1296q0 47 33 80t79 33t78.5 -33t32.5 -80q0 -46 -33 -80 t-78 -34q-46 0 -79 34t-33 80z" />
<glyph unicode="&#xfb02;" horiz-adv-x="1169" d="M41 840v131h143v180q0 168 110 262t273 94q86 0 206 -21.5t197 -43.5l77 -21v-1421h-201v1319q-22 8 -56 17.5t-101.5 20.5t-129.5 11q-93 0 -135.5 -56t-42.5 -151v-190h215v-131h-215v-840h-197v840h-143z" />
</font>
</defs>
</svg>
